<svg width="28" height="28" viewBox="0 0 28 28" fill="none" xmlns="http://www.w3.org/2000/svg">
<path d="M14.002 28C21.7334 28 28.001 21.7323 28.001 14.0007C28.001 6.26914 21.7334 0.00146484 14.002 0.00146484C6.27051 0.00146484 0.00292969 6.26914 0.00292969 14.0007C0.00292969 21.7323 6.27051 28 14.002 28Z" fill="white"/>
<path d="M27.1988 9.33213C27.1973 9.3277 27.1959 9.32397 27.1944 9.31995C25.4026 4.26797 20.794 0.551017 15.2568 0.0576172C17.3994 1.23227 18.0252 4.9539 18.5734 9.33219C18.9479 12.3228 18.9503 15.618 18.5805 18.6123C18.0369 23.0143 17.4086 26.7622 15.2569 27.9417C20.8042 27.4475 25.4195 23.7177 27.2042 18.6521C27.2088 18.6386 27.2128 18.6254 27.2177 18.6123C27.7216 17.1678 27.999 15.6165 27.999 14.0001C27.9988 12.3626 27.7152 10.7922 27.1988 9.33213Z" fill="#E12A28"/>
<path d="M19.2939 9.33209C18.746 4.95374 17.3993 1.23217 15.2566 0.057515C14.8421 0.0208071 14.423 0 13.9991 0C7.90914 0 2.73013 3.88968 0.804356 9.31991C0.802819 9.32387 0.801459 9.32766 0.799922 9.33209C0.283605 10.7922 0 12.3625 0 14C0 15.6165 0.277399 17.1676 0.781362 18.6122C0.786032 18.6252 0.790229 18.6385 0.794839 18.6519C2.71305 24.0962 7.89915 27.9995 13.999 27.9995C14.423 27.9995 14.8421 27.9787 15.2565 27.9415C17.4081 26.762 18.7574 23.0141 19.3009 18.6121C19.6708 15.6177 19.6684 12.3227 19.2939 9.33209Z" fill="#ED3432"/>
<path d="M13.8741 6.82471L15.5371 11.9433H20.9192L16.5649 15.1062L18.228 20.2253L13.8741 17.0617L9.52008 20.2253L11.1832 15.1062L6.8291 11.9433H12.2111L13.8741 6.82471Z" fill="#FDCE0C"/>
</svg>
